<svg version="1.1" id="Layer_1" xmlns="http://www.w3.org/2000/svg" xmlns:xlink="http://www.w3.org/1999/xlink" x="0px" y="0px"
	 width="100%" viewBox="0 0 1080 1080" enable-background="new 0 0 1080 1080" xml:space="preserve">
<path fill="#000000" opacity="1.000000" stroke="none" 
	d="
M417.000000,1081.000000 
	C278.346893,1081.000000 139.693787,1081.000000 1.020345,1081.000000 
	C1.020345,721.048767 1.020345,361.097565 1.020345,1.073163 
	C360.916016,1.073163 720.832031,1.073163 1080.874023,1.073163 
	C1080.874023,360.880768 1080.874023,720.761597 1080.874023,1081.000000 
	C891.637451,1081.000000 702.274658,1081.000000 512.456177,1080.531372 
	C511.667084,1064.145874 511.384674,1048.227661 510.980042,1032.312622 
	C510.761749,1023.725220 510.180756,1015.144897 510.080780,1006.557678 
	C510.043396,1003.345276 509.974548,999.540649 511.546936,997.021484 
	C515.202393,991.164917 520.096985,986.094788 523.976074,980.358704 
	C525.678101,977.841858 527.295593,977.080261 530.218933,976.884949 
	C537.516052,976.397339 545.066772,976.321411 551.989685,974.288635 
	C568.749023,969.367615 579.211853,956.858887 587.739197,941.829285 
	C597.196350,941.829285 606.963867,941.829285 617.443481,941.829285 
	C616.947998,933.242065 616.220093,925.037048 616.049011,916.820374 
	C615.575317,894.072632 615.368347,871.319580 614.988892,848.569641 
	C614.714966,832.150818 614.361938,815.733154 613.991333,799.316101 
	C613.703430,786.563660 613.355713,773.812317 612.993835,761.061646 
	C612.693420,750.475708 612.384216,739.889587 611.988831,729.306885 
	C611.365845,712.634827 610.718018,695.963440 609.984558,679.296021 
	C609.397461,665.955200 608.712036,652.618347 607.986816,639.284241 
	C607.388123,628.276794 606.754517,617.269714 605.977844,606.273682 
	C605.076477,593.512329 603.903259,580.770020 603.027344,568.007080 
	C601.923584,551.925415 600.592468,535.843811 600.097778,519.739502 
	C599.383911,496.500580 599.120300,473.241669 599.072144,449.990479 
	C599.037415,433.240082 599.949890,416.487915 599.927795,399.737213 
	C599.901062,379.485962 599.377747,359.234528 598.984497,338.984833 
	C598.736877,326.231689 598.333557,313.481506 598.001099,300.729980 
	C597.988098,300.230286 598.008423,299.728821 597.975098,299.230713 
	C597.086853,285.943329 596.193665,272.656281 595.307007,259.454987 
	C598.560547,258.837982 600.755554,258.327606 602.978394,258.016327 
	C613.119690,256.596191 623.279602,255.306320 633.412048,253.827072 
	C643.843323,252.304214 654.237732,250.528381 664.671753,249.025742 
	C674.812073,247.565399 684.990295,246.369263 695.137207,244.952271 
	C708.970642,243.020447 722.771118,240.842361 736.621460,239.045303 
	C748.589783,237.492432 760.624084,236.452637 772.600098,234.953430 
	C787.445923,233.094971 802.249634,230.900986 817.093994,229.029694 
	C831.323975,227.235840 845.564270,225.486755 859.833740,224.053452 
	C874.647400,222.565475 886.809082,216.156784 896.445618,205.005005 
	C903.974731,196.292160 906.675476,185.580093 906.830261,174.462769 
	C906.957703,165.311798 905.384033,156.150436 905.076111,146.976501 
	C904.742126,137.026581 905.000427,127.056786 905.000427,117.207634 
	C893.882202,118.507019 883.207336,119.677536 872.555420,121.028221 
	C866.116882,121.844643 859.733398,123.105865 853.289734,123.867561 
	C845.826416,124.749786 838.330322,125.390533 830.832947,125.914001 
	C829.574585,126.001862 828.036560,125.223251 826.974426,124.398537 
	C823.677307,121.838562 820.547119,119.063553 818.491089,117.331497 
	C817.571045,109.681885 817.387451,102.990120 815.871277,96.615311 
	C812.625000,82.966278 806.178345,71.044289 794.786621,62.260841 
	C792.225525,60.286179 790.767395,57.978638 790.885254,54.307835 
	C791.215759,44.014412 791.000427,33.703472 791.000427,23.002151 
	C789.750549,23.002151 788.788635,22.922575 787.843323,23.014391 
	C777.758362,23.993940 767.678467,25.025904 757.592163,25.991558 
	C750.094971,26.709330 742.578674,27.241894 735.091980,28.051676 
	C723.746887,29.278803 712.425476,30.723593 701.083862,31.984728 
	C691.343689,33.067780 681.567627,33.850941 671.846863,35.079376 
	C660.245544,36.545467 648.690552,38.374619 637.107605,39.990303 
	C626.963684,41.405281 616.756714,42.440605 606.670959,44.183968 
	C591.072876,46.880157 575.517273,49.856163 560.011536,53.043644 
	C540.610657,57.031830 521.258911,61.266445 501.927734,65.581810 
	C495.515350,67.013268 487.056854,63.864044 482.808197,58.557804 
	C474.042053,47.609653 462.936829,40.293438 448.675262,39.052471 
	C424.662567,36.963024 405.026428,52.783642 398.920715,74.813759 
	C398.579773,76.043846 397.224121,77.695015 396.114532,77.895004 
	C389.262299,79.130066 382.341858,79.982948 375.450409,81.005295 
	C367.587982,82.171684 359.740448,83.440666 351.871460,84.559708 
	C341.098785,86.091652 330.340302,87.800400 319.521881,88.907280 
	C311.655670,89.712097 303.685852,89.448997 295.791840,90.050529 
	C284.889526,90.881287 274.703094,94.055992 265.275269,99.803932 
	C262.937347,101.229309 259.810944,101.603317 256.985321,101.933861 
	C251.933380,102.524849 246.775955,102.347778 241.766968,103.146301 
	C229.633194,105.080666 217.559433,107.391518 204.999512,109.633095 
	C204.999512,114.586685 204.814865,119.892052 205.061920,125.177246 
	C205.237946,128.942825 204.979034,131.924347 200.126862,131.163605 
	C200.126862,145.976151 200.126862,160.253235 200.126862,174.530319 
	C200.280258,174.558853 200.433655,174.587387 200.587036,174.615921 
	C200.862152,173.528503 201.137283,172.441086 201.412399,171.353668 
	C201.999176,175.759949 202.258072,180.093262 201.900116,184.375000 
	C201.692139,186.862839 200.889191,189.487366 199.675354,191.673599 
	C193.154297,203.418579 185.954727,214.808655 179.873749,226.770813 
	C171.703094,242.843719 173.718582,258.581299 183.084595,273.759613 
	C184.754211,276.465363 185.617050,279.966309 185.876221,283.178864 
	C186.321930,288.703674 185.999512,294.290436 185.999512,300.493378 
	C191.921570,297.515228 197.008453,294.783966 202.262405,292.424713 
	C203.759567,291.752441 205.806213,291.819305 207.490555,292.135284 
	C213.642365,293.289307 219.718063,295.602417 225.876816,295.802124 
	C237.105667,296.166351 248.375427,295.389130 259.623901,294.973633 
	C264.548004,294.791718 269.464844,294.368011 274.379608,293.985199 
	C291.221130,292.673401 308.058868,291.312897 324.900879,290.007690 
	C334.067200,289.297302 343.248352,288.765533 352.406586,287.967194 
	C366.172302,286.767151 379.923767,285.403931 393.538605,284.123505 
	C394.042114,290.496490 394.859741,296.550964 394.943054,302.615540 
	C395.395294,335.530396 395.616241,368.448303 396.019257,401.363922 
	C396.242737,419.616302 396.660126,437.866364 397.001099,456.117249 
	C397.326508,473.535187 397.645325,490.953247 398.005981,508.370483 
	C398.307983,522.955750 398.682312,537.539612 398.995087,552.124756 
	C399.347137,568.542175 399.672760,584.960205 399.997711,601.378235 
	C400.339172,618.629150 400.656097,635.880615 401.002380,653.131470 
	C401.321930,669.049683 401.656616,684.967529 402.002258,700.885193 
	C402.322540,715.636841 402.664612,730.387939 402.999817,745.139221 
	C403.331268,759.723938 403.658722,774.308777 404.001617,788.893188 
	C404.324951,802.644836 404.664520,816.396118 404.999878,830.147461 
	C405.331146,843.732300 405.661346,857.317139 406.000885,870.901733 
	C406.327881,883.986694 406.666138,897.071411 406.999420,910.156189 
	C407.332764,923.240967 407.661133,936.325928 408.000854,949.410522 
	C408.327606,961.995544 408.736572,974.578857 408.983307,987.165405 
	C409.376953,1007.248474 409.368958,1027.345093 410.155365,1047.411621 
	C410.443726,1054.768188 412.376312,1062.081543 413.817749,1069.363281 
	C414.596588,1073.297974 415.921448,1077.124634 417.000000,1081.000000 
z"/>
<path fill="#FFFFFF" opacity="1.000000" stroke="none" 
	d="
M417.468658,1081.000000 
	C415.921448,1077.124634 414.596588,1073.297974 413.817749,1069.363281 
	C412.376312,1062.081543 410.443726,1054.768188 410.155365,1047.411621 
	C409.368958,1027.345093 409.376953,1007.248474 408.983307,987.165405 
	C408.736572,974.578857 408.327606,961.995544 408.000854,949.410522 
	C407.661133,936.325928 407.332764,923.240967 406.999420,910.156189 
	C406.666138,897.071411 406.327881,883.986694 406.000885,870.901733 
	C405.661346,857.317139 405.331146,843.732300 404.999878,830.147461 
	C404.664520,816.396118 404.324951,802.644836 404.001617,788.893188 
	C403.658722,774.308777 403.331268,759.723938 402.999817,745.139221 
	C402.664612,730.387939 402.322540,715.636841 402.002258,700.885193 
	C401.656616,684.967529 401.321930,669.049683 401.002380,653.131470 
	C400.656097,635.880615 400.339172,618.629150 399.997711,601.378235 
	C399.672760,584.960205 399.347137,568.542175 398.995087,552.124756 
	C398.682312,537.539612 398.307983,522.955750 398.005981,508.370483 
	C397.645325,490.953247 397.326508,473.535187 397.001099,456.117249 
	C396.660126,437.866364 396.242737,419.616302 396.019257,401.363922 
	C395.616241,368.448303 395.395294,335.530396 394.943054,302.615540 
	C394.859741,296.550964 394.042114,290.496490 393.538605,284.123505 
	C379.923767,285.403931 366.172302,286.767151 352.406586,287.967194 
	C343.248352,288.765533 334.067200,289.297302 324.900879,290.007690 
	C308.058868,291.312897 291.221130,292.673401 274.379608,293.985199 
	C269.464844,294.368011 264.548004,294.791718 259.623901,294.973633 
	C248.375427,295.389130 237.105667,296.166351 225.876816,295.802124 
	C219.718063,295.602417 213.642365,293.289307 207.490555,292.135284 
	C205.806213,291.819305 203.759567,291.752441 202.262405,292.424713 
	C197.008453,294.783966 191.921570,297.515228 185.999512,300.493378 
	C185.999512,294.290436 186.321930,288.703674 185.876221,283.178864 
	C185.617050,279.966309 184.754211,276.465363 183.084595,273.759613 
	C173.718582,258.581299 171.703094,242.843719 179.873749,226.770813 
	C185.954727,214.808655 193.154297,203.418579 199.675354,191.673599 
	C200.889191,189.487366 201.692139,186.862839 201.900116,184.375000 
	C202.258072,180.093262 201.999176,175.759949 201.412399,171.353668 
	C201.137283,172.441086 200.862152,173.528503 200.587036,174.615921 
	C200.433655,174.587387 200.280258,174.558853 200.126862,174.530319 
	C200.126862,160.253235 200.126862,145.976151 200.126862,131.163605 
	C204.979034,131.924347 205.237946,128.942825 205.061920,125.177246 
	C204.814865,119.892052 204.999512,114.586685 204.999512,109.633095 
	C217.559433,107.391518 229.633194,105.080666 241.766968,103.146301 
	C246.775955,102.347778 251.933380,102.524849 256.985321,101.933861 
	C259.810944,101.603317 262.937347,101.229309 265.275269,99.803932 
	C274.703094,94.055992 284.889526,90.881287 295.791840,90.050529 
	C303.685852,89.448997 311.655670,89.712097 319.521881,88.907280 
	C330.340302,87.800400 341.098785,86.091652 351.871460,84.559708 
	C359.740448,83.440666 367.587982,82.171684 375.450409,81.005295 
	C382.341858,79.982948 389.262299,79.130066 396.114532,77.895004 
	C397.224121,77.695015 398.579773,76.043846 398.920715,74.813759 
	C405.026428,52.783642 424.662567,36.963024 448.675262,39.052471 
	C462.936829,40.293438 474.042053,47.609653 482.808197,58.557804 
	C487.056854,63.864044 495.515350,67.013268 501.927734,65.581810 
	C521.258911,61.266445 540.610657,57.031830 560.011536,53.043644 
	C575.517273,49.856163 591.072876,46.880157 606.670959,44.183968 
	C616.756714,42.440605 626.963684,41.405281 637.107605,39.990303 
	C648.690552,38.374619 660.245544,36.545467 671.846863,35.079376 
	C681.567627,33.850941 691.343689,33.067780 701.083862,31.984728 
	C712.425476,30.723593 723.746887,29.278803 735.091980,28.051676 
	C742.578674,27.241894 750.094971,26.709330 757.592163,25.991558 
	C767.678467,25.025904 777.758362,23.993940 787.843323,23.014391 
	C788.788635,22.922575 789.750549,23.002151 791.000427,23.002151 
	C791.000427,33.703472 791.215759,44.014412 790.885254,54.307835 
	C790.767395,57.978638 792.225525,60.286179 794.786621,62.260841 
	C806.178345,71.044289 812.625000,82.966278 815.871277,96.615311 
	C817.387451,102.990120 817.571045,109.681885 818.491089,117.331497 
	C820.547119,119.063553 823.677307,121.838562 826.974426,124.398537 
	C828.036560,125.223251 829.574585,126.001862 830.832947,125.914001 
	C838.330322,125.390533 845.826416,124.749786 853.289734,123.867561 
	C859.733398,123.105865 866.116882,121.844643 872.555420,121.028221 
	C883.207336,119.677536 893.882202,118.507019 905.000427,117.207634 
	C905.000427,127.056786 904.742126,137.026581 905.076111,146.976501 
	C905.384033,156.150436 906.957703,165.311798 906.830261,174.462769 
	C906.675476,185.580093 903.974731,196.292160 896.445618,205.005005 
	C886.809082,216.156784 874.647400,222.565475 859.833740,224.053452 
	C845.564270,225.486755 831.323975,227.235840 817.093994,229.029694 
	C802.249634,230.900986 787.445923,233.094971 772.600098,234.953430 
	C760.624084,236.452637 748.589783,237.492432 736.621460,239.045303 
	C722.771118,240.842361 708.970642,243.020447 695.137207,244.952271 
	C684.990295,246.369263 674.812073,247.565399 664.671753,249.025742 
	C654.237732,250.528381 643.843323,252.304214 633.412048,253.827072 
	C623.279602,255.306320 613.119690,256.596191 602.978394,258.016327 
	C600.755554,258.327606 598.560547,258.837982 595.307007,259.454987 
	C596.193665,272.656281 597.086853,285.943329 597.975098,299.230713 
	C598.008423,299.728821 597.988098,300.230286 598.001099,300.729980 
	C598.333557,313.481506 598.736877,326.231689 598.984497,338.984833 
	C599.377747,359.234528 599.901062,379.485962 599.927795,399.737213 
	C599.949890,416.487915 599.037415,433.240082 599.072144,449.990479 
	C599.120300,473.241669 599.383911,496.500580 600.097778,519.739502 
	C600.592468,535.843811 601.923584,551.925415 603.027344,568.007080 
	C603.903259,580.770020 605.076477,593.512329 605.977844,606.273682 
	C606.754517,617.269714 607.388123,628.276794 607.986816,639.284241 
	C608.712036,652.618347 609.397461,665.955200 609.984558,679.296021 
	C610.718018,695.963440 611.365845,712.634827 611.988831,729.306885 
	C612.384216,739.889587 612.693420,750.475708 612.993835,761.061646 
	C613.355713,773.812317 613.703430,786.563660 613.991333,799.316101 
	C614.361938,815.733154 614.714966,832.150818 614.988892,848.569641 
	C615.368347,871.319580 615.575317,894.072632 616.049011,916.820374 
	C616.220093,925.037048 616.947998,933.242065 617.443481,941.829285 
	C606.963867,941.829285 597.196350,941.829285 587.739197,941.829285 
	C579.211853,956.858887 568.749023,969.367615 551.989685,974.288635 
	C545.066772,976.321411 537.516052,976.397339 530.218933,976.884949 
	C527.295593,977.080261 525.678101,977.841858 523.976074,980.358704 
	C520.096985,986.094788 515.202393,991.164917 511.546936,997.021484 
	C509.974548,999.540649 510.043396,1003.345276 510.080780,1006.557678 
	C510.180756,1015.144897 510.761749,1023.725220 510.980042,1032.312622 
	C511.384674,1048.227661 511.667084,1064.145874 512.000244,1080.531372 
	C480.645782,1081.000000 449.291534,1081.000000 417.468658,1081.000000 
M216.891617,127.005219 
	C218.272949,126.677788 219.650345,126.090561 221.036301,126.069687 
	C225.984558,125.995125 225.451965,123.935913 222.941467,120.553085 
	C220.243073,122.604713 217.734039,124.512352 214.779785,126.802612 
	C214.647858,127.137825 214.515915,127.473038 214.383972,127.808243 
	C214.947495,127.565361 215.511002,127.322479 216.891617,127.005219 
M550.321106,937.185547 
	C547.744080,942.395935 545.167053,947.606384 542.590027,952.816772 
	C542.765503,953.080017 542.941040,953.343201 543.116516,953.606445 
	C548.297119,949.578430 553.477661,945.550415 559.063354,941.207458 
	C555.576843,939.378235 553.254150,938.159607 551.818481,936.995178 
	C554.062012,937.298218 556.303528,937.787170 558.550171,937.812500 
	C559.444397,937.822693 560.350220,936.807129 562.063721,935.763306 
	C558.414246,934.932068 556.390564,934.376831 554.331970,934.027283 
	C552.021240,933.634888 550.371399,934.161621 550.321106,937.185547 
M799.802734,102.220375 
	C800.137939,102.352234 800.473083,102.484093 800.808289,102.615959 
	C800.565430,102.052483 800.322510,101.489006 800.005127,100.175026 
	C797.597412,94.411453 794.590393,89.122826 789.106201,85.517250 
	C788.027466,87.365967 786.979004,88.616051 786.569763,90.048706 
	C786.277832,91.070793 786.425232,92.906120 787.097534,93.402802 
	C791.088440,96.351440 795.289612,99.015457 799.802734,102.220375 
M263.907776,250.016678 
	C275.517792,249.264923 287.139069,248.654160 298.735474,247.731537 
	C321.586182,245.913513 344.435333,244.056213 367.261780,241.960358 
	C385.254852,240.308258 403.211151,238.257538 421.187469,236.419754 
	C426.725952,235.853516 432.276489,235.405411 438.186279,234.870178 
	C438.186279,236.984680 438.173645,238.459412 438.188080,239.933868 
	C438.832153,305.754425 439.435364,371.575409 440.151337,437.395203 
	C440.363342,456.887909 440.845276,476.378265 441.287567,495.867798 
	C442.500977,549.335205 443.830353,602.800049 444.976074,656.268860 
	C445.829163,696.079834 446.441162,735.895996 447.215149,775.708801 
	C447.503326,790.533020 447.918610,805.355042 448.324280,820.176697 
	C449.536621,864.471436 450.832825,908.764038 451.979431,953.060486 
	C452.794128,984.535645 453.372192,1016.017029 454.201416,1047.491821 
	C454.287109,1050.743408 454.871979,1054.182617 456.147980,1057.136108 
	C457.091064,1059.318848 459.659058,1062.462646 461.284698,1062.337646 
	C464.565857,1062.085205 468.687744,1060.851318 467.579926,1055.559448 
	C467.244690,1053.958008 467.477081,1052.237061 467.454681,1050.570923 
	C467.085480,1023.133179 464.909943,995.682007 468.018555,968.270630 
	C468.401855,964.890869 469.020813,961.537781 469.608734,957.656189 
	C472.476166,959.461243 474.599182,961.012268 476.907074,962.205872 
	C481.665894,964.667114 484.930786,962.620117 484.968231,957.211121 
	C485.021301,949.545410 485.283112,941.864746 484.917969,934.216064 
	C484.217346,919.539978 486.915039,920.867676 498.486481,925.067505 
	C505.015106,927.437134 509.147919,925.509338 509.863770,918.733154 
	C510.961487,908.342102 511.022125,897.842102 512.096252,887.447571 
	C512.944641,879.237427 514.655945,871.116455 515.984009,862.955872 
	C516.763000,863.003967 517.541931,863.052063 518.320923,863.100159 
	C520.813049,886.238464 523.305237,909.376709 525.772583,932.284485 
	C537.463135,934.390686 541.398132,932.750366 546.890198,923.621460 
	C548.494324,920.955078 549.948303,918.123230 550.957275,915.190430 
	C552.776062,909.903870 554.515320,904.551331 555.706604,899.099365 
	C556.733887,894.397766 559.241455,893.651917 563.225464,895.009399 
	C566.004211,895.956177 568.781860,896.906494 571.997253,898.004578 
	C571.997253,895.667847 572.028198,893.846497 571.992432,892.026550 
	C571.668335,875.534058 571.345581,859.041504 570.997498,842.549500 
	C570.280334,808.571533 569.583618,774.593079 568.799194,740.616638 
	C568.568665,730.627686 568.152405,720.641052 567.681152,710.659912 
	C566.487976,685.391418 565.264648,660.124207 563.952820,634.861694 
	C563.340515,623.069336 562.636414,611.278137 561.723877,599.505859 
	C560.259827,580.619995 557.990662,561.776794 557.146362,542.867188 
	C555.928101,515.579590 555.312805,488.251648 555.092957,460.935669 
	C554.613159,401.321808 556.532410,341.694092 552.231018,282.111115 
	C550.773254,261.918060 552.000000,241.531250 552.000000,220.965240 
	C556.007690,220.431564 558.772339,220.106659 561.523193,219.690216 
	C582.779175,216.472260 604.021362,213.162048 625.289917,210.029861 
	C642.476196,207.498871 659.690430,205.156693 676.897156,202.765503 
	C698.045715,199.826508 719.182556,196.793976 740.356079,194.045532 
	C757.772888,191.784714 775.235840,189.879333 792.678345,187.816620 
	C812.095520,185.520416 831.498169,183.091034 850.935425,180.980438 
	C861.941589,179.785339 863.031250,178.612122 860.692261,167.934525 
	C860.638794,167.690399 860.211243,167.528198 860.372070,167.655533 
	C838.071106,168.532410 816.281677,173.101212 793.825195,169.683502 
	C794.389526,167.829651 794.762329,166.601639 795.137085,165.374268 
	C795.520508,164.118805 795.968628,162.879288 796.279053,161.606110 
	C797.411438,156.962677 795.976562,154.902023 791.363403,155.049149 
	C787.226807,155.181076 783.074646,155.528046 778.980103,156.126984 
	C770.723877,157.334686 768.909180,155.625534 770.072754,147.246094 
	C770.185974,146.430771 770.541504,145.651917 770.700378,144.839676 
	C772.290100,136.708771 768.310669,131.357254 760.075928,131.110916 
	C754.933533,130.957092 749.772400,131.489914 744.617920,131.663910 
	C738.350037,131.875534 732.335144,131.052490 725.616028,126.806496 
	C729.390442,125.209396 731.929871,123.705414 734.672119,123.048981 
	C746.421631,120.236450 758.627625,119.531799 770.057861,115.115791 
	C772.517761,114.165443 773.455627,113.461060 773.286316,110.683105 
	C772.849121,103.510521 769.793213,97.800354 763.895508,94.028076 
	C759.934021,91.494217 755.464233,89.559036 750.982178,88.084480 
	C745.361389,86.235291 744.305054,85.224724 744.993225,79.243729 
	C745.261414,76.913498 745.712952,74.604362 746.176453,71.684044 
	C741.769043,72.182541 738.165955,72.620911 734.556091,72.993118 
	C717.561279,74.745399 700.531860,76.213203 683.577271,78.291832 
	C665.012268,80.567879 646.474609,83.141937 628.000427,86.062729 
	C607.612427,89.286079 587.235413,92.672531 566.988342,96.670090 
	C538.362549,102.321953 510.260162,110.565483 481.164764,113.935135 
	C477.787109,114.326317 475.661896,113.629486 474.039825,110.388100 
	C471.763733,105.839684 469.028015,101.459358 463.764130,100.492706 
	C462.516479,104.736313 461.342773,108.728340 459.909454,113.603348 
	C457.805420,107.970459 456.321198,103.417404 454.414062,99.048965 
	C452.374573,94.377319 450.254974,89.681664 447.572876,85.367958 
	C445.368286,81.822258 443.056335,82.232956 441.819000,86.259850 
	C440.810608,89.541710 440.346008,93.043228 440.058044,96.482330 
	C439.544586,102.614220 439.531647,108.792221 438.880859,114.905319 
	C438.726807,116.352509 437.005188,118.650352 435.781952,118.805923 
	C425.584717,120.102791 415.313904,120.811882 405.106873,122.043297 
	C390.813416,123.767715 376.543701,125.703484 362.287079,127.713760 
	C352.976105,129.026672 343.750549,131.107162 334.406036,131.975525 
	C324.652039,132.881943 314.788696,132.539291 304.996826,133.133041 
	C297.119995,133.610672 289.495819,135.195007 283.101379,141.931213 
	C287.300934,141.931213 290.576019,141.931213 293.851135,141.931213 
	C290.069672,143.644638 286.144958,144.719482 282.168121,144.971100 
	C273.191589,145.539001 264.183380,145.592163 255.201187,146.091553 
	C252.469925,146.243423 249.204803,145.771225 248.274658,149.953201 
	C247.586380,153.047791 246.096466,155.964066 245.227783,158.261368 
	C257.488739,157.122055 270.614258,155.902390 283.847961,154.672699 
	C283.847961,157.975601 283.847961,160.404694 283.847961,162.939636 
	C281.506195,163.316986 279.396515,163.865738 277.266113,163.964035 
	C268.112976,164.386307 258.955872,164.790421 249.795746,164.960571 
	C245.876450,165.033386 243.818024,166.230759 244.469238,170.516602 
	C245.100418,174.670425 244.478210,178.193420 239.337021,179.126221 
	C244.762466,178.719757 250.187912,178.313309 255.508972,177.914658 
	C259.173523,187.330231 257.881531,189.952835 248.993866,191.692719 
	C244.904770,192.493210 242.399185,199.414795 245.235001,202.657776 
	C246.079453,203.623474 247.902695,203.962738 249.331757,204.132767 
	C251.362274,204.374374 253.442993,204.194122 255.918152,204.194122 
	C244.518539,209.762100 234.057205,215.673065 229.656601,227.961365 
	C233.605698,229.080246 236.783310,229.980545 240.300125,230.976959 
	C234.130554,234.954529 228.456558,238.366638 223.093674,242.212585 
	C221.375061,243.445099 220.479111,245.824738 219.206772,247.679535 
	C221.049423,248.855194 222.772827,250.336746 224.770233,251.115433 
	C226.557465,251.812164 228.652176,251.993378 230.601822,251.952667 
	C238.736420,251.782745 246.867462,251.443344 255.008728,251.898087 
	C256.600342,255.032043 258.191956,258.165985 259.783600,261.299957 
	C260.149933,261.192719 260.516296,261.085480 260.882660,260.978241 
	C261.588562,257.374146 262.294464,253.770050 263.907776,250.016678 
M216.041183,173.571655 
	C216.041183,174.226364 216.041183,174.881073 216.041183,175.500595 
	C222.315613,171.947296 228.484863,168.453552 234.854950,164.846069 
	C234.854950,161.049011 234.854950,156.783997 234.854950,152.371490 
	C225.613770,156.646530 220.691193,164.481293 216.041183,173.571655 
M212.630020,147.950409 
	C219.376648,147.950409 226.123276,147.950409 233.386551,147.950409 
	C232.465820,145.102646 231.517670,142.883636 231.049896,140.567612 
	C230.202179,136.370453 227.766495,136.104050 224.823105,138.071320 
	C220.533157,140.938583 216.475220,144.152939 212.630020,147.950409 
z"/>
<path fill="#FF0101" opacity="1.000000" stroke="none" 
	d="
M254.999817,251.166107 
	C246.867462,251.443344 238.736420,251.782745 230.601822,251.952667 
	C228.652176,251.993378 226.557465,251.812164 224.770233,251.115433 
	C222.772827,250.336746 221.049423,248.855194 219.206772,247.679535 
	C220.479111,245.824738 221.375061,243.445099 223.093674,242.212585 
	C228.456558,238.366638 234.130554,234.954529 240.300125,230.976959 
	C236.783310,229.980545 233.605698,229.080246 229.656601,227.961365 
	C234.057205,215.673065 244.518539,209.762100 255.918152,204.194122 
	C253.442993,204.194122 251.362274,204.374374 249.331757,204.132767 
	C247.902695,203.962738 246.079453,203.623474 245.235001,202.657776 
	C242.399185,199.414795 244.904770,192.493210 248.993866,191.692719 
	C257.881531,189.952835 259.173523,187.330231 255.508972,177.914658 
	C250.187912,178.313309 244.762466,178.719757 239.337021,179.126221 
	C244.478210,178.193420 245.100418,174.670425 244.469238,170.516602 
	C243.818024,166.230759 245.876450,165.033386 249.795746,164.960571 
	C258.955872,164.790421 268.112976,164.386307 277.266113,163.964035 
	C279.396515,163.865738 281.506195,163.316986 283.847961,162.939636 
	C283.847961,160.404694 283.847961,157.975601 283.847961,154.672699 
	C270.614258,155.902390 257.488739,157.122055 245.227783,158.261368 
	C246.096466,155.964066 247.586380,153.047791 248.274658,149.953201 
	C249.204803,145.771225 252.469925,146.243423 255.201187,146.091553 
	C264.183380,145.592163 273.191589,145.539001 282.168121,144.971100 
	C286.144958,144.719482 290.069672,143.644638 293.851135,141.931213 
	C290.576019,141.931213 287.300934,141.931213 283.101379,141.931213 
	C289.495819,135.195007 297.119995,133.610672 304.996826,133.133041 
	C314.788696,132.539291 324.652039,132.881943 334.406036,131.975525 
	C343.750549,131.107162 352.976105,129.026672 362.287079,127.713760 
	C376.543701,125.703484 390.813416,123.767715 405.106873,122.043297 
	C415.313904,120.811882 425.584717,120.102791 435.781952,118.805923 
	C437.005188,118.650352 438.726807,116.352509 438.880859,114.905319 
	C439.531647,108.792221 439.544586,102.614220 440.058044,96.482330 
	C440.346008,93.043228 440.810608,89.541710 441.819000,86.259850 
	C443.056335,82.232956 445.368286,81.822258 447.572876,85.367958 
	C450.254974,89.681664 452.374573,94.377319 454.414062,99.048965 
	C456.321198,103.417404 457.805420,107.970459 459.909454,113.603348 
	C461.342773,108.728340 462.516479,104.736313 463.764130,100.492706 
	C469.028015,101.459358 471.763733,105.839684 474.039825,110.388100 
	C475.661896,113.629486 477.787109,114.326317 481.164764,113.935135 
	C510.260162,110.565483 538.362549,102.321953 566.988342,96.670090 
	C587.235413,92.672531 607.612427,89.286079 628.000427,86.062729 
	C646.474609,83.141937 665.012268,80.567879 683.577271,78.291832 
	C700.531860,76.213203 717.561279,74.745399 734.556091,72.993118 
	C738.165955,72.620911 741.769043,72.182541 746.176453,71.684044 
	C745.712952,74.604362 745.261414,76.913498 744.993225,79.243729 
	C744.305054,85.224724 745.361389,86.235291 750.982178,88.084480 
	C755.464233,89.559036 759.934021,91.494217 763.895508,94.028076 
	C769.793213,97.800354 772.849121,103.510521 773.286316,110.683105 
	C773.455627,113.461060 772.517761,114.165443 770.057861,115.115791 
	C758.627625,119.531799 746.421631,120.236450 734.672119,123.048981 
	C731.929871,123.705414 729.390442,125.209396 725.616028,126.806496 
	C732.335144,131.052490 738.350037,131.875534 744.617920,131.663910 
	C749.772400,131.489914 754.933533,130.957092 760.075928,131.110916 
	C768.310669,131.357254 772.290100,136.708771 770.700378,144.839676 
	C770.541504,145.651917 770.185974,146.430771 770.072754,147.246094 
	C768.909180,155.625534 770.723877,157.334686 778.980103,156.126984 
	C783.074646,155.528046 787.226807,155.181076 791.363403,155.049149 
	C795.976562,154.902023 797.411438,156.962677 796.279053,161.606110 
	C795.968628,162.879288 795.520508,164.118805 795.137085,165.374268 
	C794.762329,166.601639 794.389526,167.829651 793.825195,169.683502 
	C816.281677,173.101212 838.071106,168.532410 860.372070,167.655533 
	C860.211243,167.528198 860.638794,167.690399 860.692261,167.934525 
	C863.031250,178.612122 861.941589,179.785339 850.935425,180.980438 
	C831.498169,183.091034 812.095520,185.520416 792.678345,187.816620 
	C775.235840,189.879333 757.772888,191.784714 740.356079,194.045532 
	C719.182556,196.793976 698.045715,199.826508 676.897156,202.765503 
	C659.690430,205.156693 642.476196,207.498871 625.289917,210.029861 
	C604.021362,213.162048 582.779175,216.472260 561.523193,219.690216 
	C558.772339,220.106659 556.007690,220.431564 552.000000,220.965240 
	C552.000000,241.531250 550.773254,261.918060 552.231018,282.111115 
	C556.532410,341.694092 554.613159,401.321808 555.092957,460.935669 
	C555.312805,488.251648 555.928101,515.579590 557.146362,542.867188 
	C557.990662,561.776794 560.259827,580.619995 561.723877,599.505859 
	C562.636414,611.278137 563.340515,623.069336 563.952820,634.861694 
	C565.264648,660.124207 566.487976,685.391418 567.681152,710.659912 
	C568.152405,720.641052 568.568665,730.627686 568.799194,740.616638 
	C569.583618,774.593079 570.280334,808.571533 570.997498,842.549500 
	C571.345581,859.041504 571.668335,875.534058 571.992432,892.026550 
	C572.028198,893.846497 571.997253,895.667847 571.997253,898.004578 
	C568.781860,896.906494 566.004211,895.956177 563.225464,895.009399 
	C559.241455,893.651917 556.733887,894.397766 555.706604,899.099365 
	C554.515320,904.551331 552.776062,909.903870 550.957275,915.190430 
	C549.948303,918.123230 548.494324,920.955078 546.890198,923.621460 
	C541.398132,932.750366 537.463135,934.390686 525.772583,932.284485 
	C523.305237,909.376709 520.813049,886.238464 518.320923,863.100159 
	C517.541931,863.052063 516.763000,863.003967 515.984009,862.955872 
	C514.655945,871.116455 512.944641,879.237427 512.096252,887.447571 
	C511.022125,897.842102 510.961487,908.342102 509.863770,918.733154 
	C509.147919,925.509338 505.015106,927.437134 498.486481,925.067505 
	C486.915039,920.867676 484.217346,919.539978 484.917969,934.216064 
	C485.283112,941.864746 485.021301,949.545410 484.968231,957.211121 
	C484.930786,962.620117 481.665894,964.667114 476.907074,962.205872 
	C474.599182,961.012268 472.476166,959.461243 469.608734,957.656189 
	C469.020813,961.537781 468.401855,964.890869 468.018555,968.270630 
	C464.909943,995.682007 467.085480,1023.133179 467.454681,1050.570923 
	C467.477081,1052.237061 467.244690,1053.958008 467.579926,1055.559448 
	C468.687744,1060.851318 464.565857,1062.085205 461.284698,1062.337646 
	C459.659058,1062.462646 457.091064,1059.318848 456.147980,1057.136108 
	C454.871979,1054.182617 454.287109,1050.743408 454.201416,1047.491821 
	C453.372192,1016.017029 452.794128,984.535645 451.979431,953.060486 
	C450.832825,908.764038 449.536621,864.471436 448.324280,820.176697 
	C447.918610,805.355042 447.503326,790.533020 447.215149,775.708801 
	C446.441162,735.895996 445.829163,696.079834 444.976074,656.268860 
	C443.830353,602.800049 442.500977,549.335205 441.287567,495.867798 
	C440.845276,476.378265 440.363342,456.887909 440.151337,437.395203 
	C439.435364,371.575409 438.832153,305.754425 438.188080,239.933868 
	C438.173645,238.459412 438.186279,236.984680 438.186279,234.870178 
	C432.276489,235.405411 426.725952,235.853516 421.187469,236.419754 
	C403.211151,238.257538 385.254852,240.308258 367.261780,241.960358 
	C344.435333,244.056213 321.586182,245.913513 298.735474,247.731537 
	C287.139069,248.654160 275.517792,249.264923 263.061401,250.168945 
	C259.809937,250.602844 257.404877,250.884476 254.999817,251.166107 
M295.537415,141.073212 
	C295.456970,141.283905 295.376526,141.494598 295.296082,141.705276 
	C295.681519,141.690704 296.066986,141.676132 296.452423,141.661560 
	C296.355499,141.478378 296.258606,141.295197 295.537415,141.073212 
z"/>
<path fill="#000000" opacity="1.000000" stroke="none" 
	d="
M216.280945,173.278137 
	C220.691193,164.481293 225.613770,156.646530 234.854950,152.371490 
	C234.854950,156.783997 234.854950,161.049011 234.854950,164.846069 
	C228.484863,168.453552 222.315613,171.947296 216.041183,175.500595 
	C216.041183,174.881073 216.041183,174.226364 216.280945,173.278137 
z"/>
<path fill="#000000" opacity="1.000000" stroke="none" 
	d="
M212.474182,147.584869 
	C216.475220,144.152939 220.533157,140.938583 224.823105,138.071320 
	C227.766495,136.104050 230.202179,136.370453 231.049896,140.567612 
	C231.517670,142.883636 232.465820,145.102646 233.386551,147.950409 
	C226.123276,147.950409 219.376648,147.950409 212.474182,147.584869 
z"/>
<path fill="#000000" opacity="1.000000" stroke="none" 
	d="
M799.420166,101.775116 
	C795.289612,99.015457 791.088440,96.351440 787.097534,93.402802 
	C786.425232,92.906120 786.277832,91.070793 786.569763,90.048706 
	C786.979004,88.616051 788.027466,87.365967 789.106201,85.517250 
	C794.590393,89.122826 797.597412,94.411453 799.867981,100.755280 
	C799.627258,101.482056 799.523743,101.628586 799.420166,101.775116 
z"/>
<path fill="#000000" opacity="1.000000" stroke="none" 
	d="
M550.931396,936.940979 
	C553.254150,938.159607 555.576843,939.378235 559.063354,941.207458 
	C553.477661,945.550415 548.297119,949.578430 543.116516,953.606445 
	C542.941040,953.343201 542.765503,953.080017 542.590027,952.816772 
	C545.167053,947.606384 547.744080,942.395935 550.662903,937.097961 
	C551.004700,937.010376 550.931396,936.940979 550.931396,936.940979 
z"/>
<path fill="#000000" opacity="1.000000" stroke="none" 
	d="
M255.004272,251.532104 
	C257.404877,250.884476 259.809937,250.602844 262.607666,250.243591 
	C262.294464,253.770050 261.588562,257.374146 260.882660,260.978241 
	C260.516296,261.085480 260.149933,261.192719 259.783600,261.299957 
	C258.191956,258.165985 256.600342,255.032043 255.004272,251.532104 
z"/>
<path fill="#000000" opacity="1.000000" stroke="none" 
	d="
M215.225021,126.419991 
	C217.734039,124.512352 220.243073,122.604713 222.941467,120.553085 
	C225.451965,123.935913 225.984558,125.995125 221.036301,126.069687 
	C219.650345,126.090561 218.272949,126.677788 216.278107,126.867966 
	C215.518066,126.627144 215.371552,126.523567 215.225021,126.419991 
z"/>
<path fill="#000000" opacity="1.000000" stroke="none" 
	d="
M551.039246,937.047119 
	C550.371399,934.161621 552.021240,933.634888 554.331970,934.027283 
	C556.390564,934.376831 558.414246,934.932068 562.063721,935.763306 
	C560.350220,936.807129 559.444397,937.822693 558.550171,937.812500 
	C556.303528,937.787170 554.062012,937.298218 551.374939,936.968079 
	C550.931396,936.940979 551.004700,937.010376 551.039246,937.047119 
z"/>
<path fill="#000000" opacity="1.000000" stroke="none" 
	d="
M799.905273,101.130531 
	C800.322510,101.489006 800.565430,102.052483 800.808289,102.615959 
	C800.473083,102.484093 800.137939,102.352234 799.611450,101.997742 
	C799.523743,101.628586 799.627258,101.482056 799.905273,101.130531 
z"/>
<path fill="#000000" opacity="1.000000" stroke="none" 
	d="
M215.869568,126.905151 
	C215.511002,127.322479 214.947495,127.565361 214.383972,127.808243 
	C214.515915,127.473038 214.647858,127.137825 215.002411,126.611298 
	C215.371552,126.523567 215.518066,126.627144 215.869568,126.905151 
z"/>
<path fill="#FFFFFF" opacity="1.000000" stroke="none" 
	d="
M295.849548,141.092606 
	C296.258606,141.295197 296.355499,141.478378 296.452423,141.661560 
	C296.066986,141.676132 295.681519,141.690704 295.296082,141.705276 
	C295.376526,141.494598 295.456970,141.283905 295.849548,141.092606 
z"/>
</svg>